<?xml version="1.0" encoding="UTF-8" standalone="no"?>
<!-- Created with Inkscape (http://www.inkscape.org/) -->

<svg
   xmlns:dc="http://purl.org/dc/elements/1.1/"
   xmlns:cc="http://creativecommons.org/ns#"
   xmlns:rdf="http://www.w3.org/1999/02/22-rdf-syntax-ns#"
   xmlns:svg="http://www.w3.org/2000/svg"
   xmlns="http://www.w3.org/2000/svg"
   xmlns:sodipodi="http://sodipodi.sourceforge.net/DTD/sodipodi-0.dtd"
   xmlns:inkscape="http://www.inkscape.org/namespaces/inkscape"
   width="76.480133mm"
   height="42.165794mm"
   viewBox="0 0 270.99258 149.40644"
   id="svg2"
   version="1.1"
   inkscape:version="0.91 r13725"
   sodipodi:docname="graph.svg">
  <defs
     id="defs4" />
  <sodipodi:namedview
     id="base"
     pagecolor="#ffffff"
     bordercolor="#666666"
     borderopacity="1.0"
     inkscape:pageopacity="0.0"
     inkscape:pageshadow="2"
     inkscape:zoom="1.4142136"
     inkscape:cx="181.70762"
     inkscape:cy="-7.1600319"
     inkscape:document-units="px"
     inkscape:current-layer="layer1"
     showgrid="true"
     inkscape:snap-nodes="true"
     inkscape:snap-midpoints="false"
     inkscape:snap-page="false"
     fit-margin-top="0"
     fit-margin-left="0"
     fit-margin-right="0"
     fit-margin-bottom="0"
     inkscape:window-width="1863"
     inkscape:window-height="1026"
     inkscape:window-x="57"
     inkscape:window-y="24"
     inkscape:window-maximized="1">
    <inkscape:grid
       type="xygrid"
       id="grid3403"
       originx="-334.0643"
       originy="-695.63508" />
  </sodipodi:namedview>
  <metadata
     id="metadata7">
    <rdf:RDF>
      <cc:Work
         rdf:about="">
        <dc:format>image/svg+xml</dc:format>
        <dc:type
           rdf:resource="http://purl.org/dc/dcmitype/StillImage" />
        <dc:title></dc:title>
      </cc:Work>
    </rdf:RDF>
  </metadata>
  <g
     inkscape:label="Layer 1"
     inkscape:groupmode="layer"
     id="layer1"
     transform="translate(-334.06432,-207.32091)">
    <ellipse
       style="fill:#b3b3b3;fill-rule:evenodd;stroke:#000000;stroke-width:0.37982345px;stroke-linecap:butt;stroke-linejoin:miter;stroke-opacity:1"
       id="path3344-2"
       cx="399.66803"
       cy="283.57968"
       rx="19.447367"
       ry="16.98633" />
    <ellipse
       style="fill:#b3b3b3;fill-rule:evenodd;stroke:#000000;stroke-width:0.37982345px;stroke-linecap:butt;stroke-linejoin:miter;stroke-opacity:1"
       id="path3344-1"
       cx="536.38892"
       cy="282.58047"
       rx="19.447367"
       ry="16.98633" />
    <ellipse
       style="fill:#b3b3b3;fill-rule:evenodd;stroke:#000000;stroke-width:0.37982345px;stroke-linecap:butt;stroke-linejoin:miter;stroke-opacity:1"
       id="path3344-0"
       cx="469.20709"
       cy="282.58044"
       rx="19.447367"
       ry="16.98633" />
    <ellipse
       style="fill:#b3b3b3;fill-rule:evenodd;stroke:#000000;stroke-width:0.37982345px;stroke-linecap:butt;stroke-linejoin:miter;stroke-opacity:1"
       id="path3344-7"
       cx="585.41974"
       cy="242.32056"
       rx="19.447367"
       ry="16.98633" />
    <ellipse
       style="fill:#b3b3b3;fill-rule:evenodd;stroke:#000000;stroke-width:0.37982345px;stroke-linecap:butt;stroke-linejoin:miter;stroke-opacity:1"
       id="path3344-7-9"
       cx="353.70151"
       cy="242.61264"
       rx="19.447367"
       ry="16.98633" />
    <ellipse
       style="fill:#b3b3b3;fill-rule:evenodd;stroke:#000000;stroke-width:0.37982345px;stroke-linecap:butt;stroke-linejoin:miter;stroke-opacity:1"
       id="path3344-0-4"
       cx="470.20709"
       cy="224.58044"
       rx="19.447371"
       ry="16.986334" />
    <path
       style="fill:#ffffff"
       d="m 529.55568,297.8927 c -4.91479,-1.64635 -10.78942,-7.86013 -11.62078,-12.29165 -0.96873,-5.16377 1.01311,-10.76 5.07284,-14.32449 14.34726,-12.59706 38.38838,1.07156 30.50985,17.34643 -3.81737,7.88564 -15.08328,12.24388 -23.96191,9.26971 z"
       id="path3581"
       inkscape:connector-curvature="0" />
    <path
       style="fill:#b3b3b3"
       d=""
       id="path3616"
       inkscape:connector-curvature="0"
       transform="translate(333.35715,278.11492)" />
    <ellipse
       style="fill:#ffffff;fill-rule:evenodd;stroke:#000000;stroke-width:0.37982345px;stroke-linecap:butt;stroke-linejoin:miter;stroke-opacity:1"
       id="path3344-0-4-5"
       cx="354.02649"
       cy="324.13083"
       rx="19.447374"
       ry="16.986338" />
    <ellipse
       style="fill:#b3b3b3;fill-rule:evenodd;stroke:#000000;stroke-width:0.37982345px;stroke-linecap:butt;stroke-linejoin:miter;stroke-opacity:1"
       id="path3344-0-4-0"
       cx="584.10004"
       cy="325.29199"
       rx="19.447374"
       ry="16.986338" />
    <path
       style="fill:none;fill-rule:evenodd;stroke:#000000;stroke-width:1px;stroke-linecap:butt;stroke-linejoin:miter;stroke-opacity:1"
       d="m 367.65994,312.01793 18.37467,-16.32534"
       id="path3656"
       inkscape:connector-type="polyline"
       inkscape:connector-curvature="0"
       inkscape:connection-start="#path3344-0-4-5"
       inkscape:connection-end="#path3344-2" />
    <path
       style="fill:none;fill-rule:evenodd;stroke:#000000;stroke-width:1px;stroke-linecap:butt;stroke-linejoin:miter;stroke-opacity:1"
       d="M 386.0561,271.44823 367.31344,254.74409"
       id="path3658"
       inkscape:connector-type="polyline"
       inkscape:connector-curvature="0"
       inkscape:connection-start="#path3344-2"
       inkscape:connection-end="#path3344-7-9" />
    <path
       style="fill:none;fill-rule:evenodd;stroke:#000000;stroke-width:1px;stroke-linecap:butt;stroke-linejoin:miter;stroke-opacity:1"
       d="m 419.11244,283.30028 30.65025,-0.44042"
       id="path3660"
       inkscape:connector-type="polyline"
       inkscape:connector-curvature="0"
       inkscape:connection-start="#path3344-2"
       inkscape:connection-end="#path3344-0" />
    <path
       style="fill:none;fill-rule:evenodd;stroke:#000000;stroke-width:1px;stroke-linecap:butt;stroke-linejoin:miter;stroke-opacity:1"
       d="m 469.49994,265.59626 0.41434,-24.03163"
       id="path3662"
       inkscape:connector-type="polyline"
       inkscape:connector-curvature="0"
       inkscape:connection-end="#path3344-0-4"
       inkscape:connection-start="#path3344-0" />
    <path
       style="fill:none;fill-rule:evenodd;stroke:#000000;stroke-width:1px;stroke-linecap:butt;stroke-linejoin:miter;stroke-opacity:1"
       d="m 488.65446,282.58046 28.28709,10e-6"
       id="path3666"
       inkscape:connector-type="polyline"
       inkscape:connector-curvature="0"
       inkscape:connection-end="#path3344-1"
       inkscape:connection-start="#path3344-0" />
    <path
       style="fill:none;fill-rule:evenodd;stroke:#000000;stroke-width:1px;stroke-linecap:butt;stroke-linejoin:miter;stroke-opacity:1"
       d="m 550.55798,270.94607 20.69271,-16.99109"
       id="path3668"
       inkscape:connector-type="polyline"
       inkscape:connector-curvature="0"
       inkscape:connection-start="#path3344-1"
       inkscape:connection-end="#path3344-7" />
    <path
       style="fill:none;fill-rule:evenodd;stroke:#000000;stroke-width:1px;stroke-linecap:butt;stroke-linejoin:miter;stroke-opacity:1"
       d="m 549.97007,294.73847 20.54881,18.39552"
       id="path3670"
       inkscape:connector-type="polyline"
       inkscape:connector-curvature="0"
       inkscape:connection-start="#path3344-1"
       inkscape:connection-end="#path3344-0-4-0" />
    <path
       style="fill:#ffffff"
       d="m 581.40668,258.35605 c -4.51656,-0.76581 -9.42274,-3.86026 -12.05234,-7.60172 -2.85384,-4.06052 -3.38578,-10.54386 -1.21433,-14.80026 6.95667,-13.63619 29.33812,-12.98763 35.20816,1.02024 4.81919,11.5002 -7.78431,23.78216 -21.94149,21.38174 z"
       id="path3688"
       inkscape:connector-curvature="0" />
    <path
       style="fill:#ffffff"
       d="m 394.64451,299.4846 c -11.58808,-3.06189 -17.03676,-13.84446 -11.69883,-23.15121 5.25112,-9.15541 18.03837,-11.97163 27.58687,-6.07564 8.48664,5.24031 10.38365,16.05368 4.07653,23.2371 -4.35135,4.95591 -13.49503,7.69919 -19.96457,5.98975 z"
       id="path3692"
       inkscape:connector-curvature="0" />
    <path
       style="fill:#ffffff"
       d="m 348.32902,258.43288 c -11.24042,-3.43157 -16.27539,-13.16023 -11.6327,-22.47689 3.1103,-6.24156 8.92075,-9.5299 16.936,-9.58468 13.52562,-0.0924 22.43625,11.43157 17.40463,22.50921 -3.35616,7.38896 -14.47438,12.06597 -22.70793,9.55236 z"
       id="path3694"
       inkscape:connector-curvature="0" />
    <path
       style="fill:#ffffff"
       d="m 462.65329,239.61847 c -6.7508,-2.4766 -11.08668,-8.3732 -11.08668,-15.0774 0,-14.27799 19.98944,-21.72476 31.61175,-11.77649 9.28771,7.94993 7.14061,20.79718 -4.38814,26.25667 -4.1309,1.95621 -11.6718,2.23529 -16.13693,0.59722 z"
       id="path3696"
       inkscape:connector-curvature="0" />
    <path
       style="fill:#cccccc"
       d="m 578.84583,341.20938 c -3.75838,-1.24309 -7.64789,-3.64489 -9.71481,-5.99898 -6.3038,-7.17963 -4.40471,-17.99435 4.07982,-23.23336 12.06547,-7.45015 28.60998,-0.68247 29.5332,12.08081 0.48337,6.68259 -2.76797,12.11006 -9.21019,15.37458 -3.77613,1.91351 -11.46335,2.8435 -14.68802,1.77695 z"
       id="path3698"
       inkscape:connector-curvature="0" />
    <path
       style="fill:#cccccc"
       d="m 578.1766,257.1653 c -4.77501,-1.68588 -9.58332,-6.86624 -10.54795,-11.36412 -1.68725,-7.86738 1.64882,-13.93917 9.70185,-17.65778 3.27458,-1.51208 4.52043,-1.70539 9.19239,-1.42627 6.38231,0.38131 9.99042,1.99111 13.72311,6.12275 4.11633,4.55628 4.96366,10.4733 2.251,15.71901 -0.53698,1.0384 -2.46537,3.19871 -4.2853,4.80068 -5.3949,4.74878 -13.17707,6.22703 -20.0351,3.80573 z"
       id="path3700"
       inkscape:connector-curvature="0" />
    <path
       style="fill:#cccccc"
       d="m 349.38968,258.4642 c -5.54073,-1.44257 -11.49178,-6.09798 -13.03811,-10.1995 -1.23256,-3.26927 -0.89763,-8.92621 0.72723,-12.28272 5.14697,-10.63222 21.48283,-12.68454 30.35392,-3.81345 6.11343,6.11343 6.36064,13.97998 0.63455,20.19206 -4.42093,4.79614 -12.96958,7.58974 -18.67759,6.10361 z"
       id="path3704"
       inkscape:connector-curvature="0" />
    <path
       style="fill:#ffffff"
       d="m 347.26836,339.54359 c -3.8733,-1.38065 -8.07401,-4.79229 -10.0479,-8.16048 -4.90479,-8.36938 -0.37736,-18.88447 9.65503,-22.4241 6.49216,-2.29057 15.02507,-0.90652 20.0752,3.25623 9.74669,8.03404 6.56474,22.90153 -5.80334,27.11576 -3.60406,1.22803 -10.7243,1.33709 -13.87899,0.21259 z"
       id="path3706"
       inkscape:connector-curvature="0" />
    <path
       style="fill:#ffffff"
       d="m 349.03218,258.387 c -7.5e-4,-0.19445 -1.36552,-0.9144 -3.03283,-1.59988 -1.66732,-0.68548 -3.97306,-2.13505 -5.12388,-3.22127 -5.23193,-4.93824 -5.96229,-7.19741 -4.54064,-14.04542 0.42713,-2.05749 0.67542,-3.84326 0.55176,-3.96838 -0.12366,-0.12512 1.52525,-1.73197 3.66425,-3.57078 5.28307,-4.54165 5.2198,-4.4991 6.2025,-4.17153 0.47771,0.15924 0.86857,-0.0254 0.86857,-0.41031 0,-0.38491 0.6573,-0.52794 1.46068,-0.31786 0.80337,0.21009 2.24169,-0.036 3.19626,-0.54688 1.3334,-0.71361 1.92892,-0.73554 2.56984,-0.0946 0.45883,0.45883 1.48654,0.84122 2.28381,0.84977 3.98106,0.0427 10.71161,4.62194 12.9683,8.8233 1.22942,2.28885 2.32621,10.25305 1.41201,10.25305 -0.30601,0 -0.55638,0.49093 -0.55638,1.09095 0,1.98397 -6.32016,7.96897 -9.78815,9.26908 -1.81132,0.67904 -3.45242,1.41006 -3.64687,1.62448 -0.44101,0.48629 -8.48737,0.5207 -8.48923,0.0363 z"
       id="path3708"
       inkscape:connector-curvature="0" />
    <path
       style="fill:#ffffff"
       d="m 577.77971,340.57669 c -5.02264,-1.76765 -8.48222,-4.66423 -10.56658,-8.84698 -2.89567,-5.81086 -2.1108,-11.32332 2.31059,-16.22807 7.16503,-7.94833 20.56588,-8.43915 28.29755,-1.03642 3.44487,3.29831 4.59082,5.94281 4.65549,10.74337 0.0458,3.39867 -0.32146,4.88666 -1.84613,7.48013 -4.11594,7.00121 -14.84608,10.70518 -22.85092,7.88797 z"
       id="path3712"
       inkscape:connector-curvature="0" />
    <path
       style="fill:#ffffff"
       d="m 584.50268,258.33439 c 0.79243,-0.55141 0.30067,-0.67807 -1.94454,-0.50082 -1.65286,0.13049 -3.0052,-0.0439 -3.0052,-0.38742 0,-0.34356 -0.45674,-0.4494 -1.01498,-0.23518 -0.55824,0.21421 -1.11508,0.11302 -1.23744,-0.22487 -0.12235,-0.33789 -0.66414,-0.71776 -1.20397,-0.84416 -1.58718,-0.37162 -6.336,-5.81117 -7.4951,-8.58527 -2.63786,-6.31331 -0.32093,-13.3993 5.64819,-17.27415 1.94454,-1.2623 3.85373,-2.53626 4.24264,-2.83102 0.38891,-0.29476 1.45837,-0.42846 2.37658,-0.2971 1.19412,0.17083 1.51343,-0.0137 1.12144,-0.6479 -0.39431,-0.63799 -0.18892,-0.74893 0.73216,-0.39548 0.70411,0.27019 3.25974,0.7716 5.67919,1.11423 2.41944,0.34264 5.36197,1.12095 6.53894,1.72958 2.96716,1.53438 6.54951,5.25817 7.69433,7.99811 1.24765,2.98604 1.22653,8.268 -0.0427,10.6858 -2.4811,4.72626 -10.23732,9.99017 -14.77247,10.02563 -1.14105,0.009 -1.80031,0.31642 -1.54926,0.72263 0.24369,0.3943 -0.28526,0.70232 -1.1957,0.69628 -1.34123,-0.009 -1.44336,-0.14259 -0.57207,-0.74889 z"
       id="path3714"
       inkscape:connector-curvature="0" />
    <path
       style="fill:#cccccc"
       d="m 391.06966,297.72074 c -1.96617,-0.91556 -4.71605,-2.99788 -6.11084,-4.62738 -8.58794,-10.03307 -1.04228,-24.47782 13.26257,-25.38869 16.22565,-1.03317 25.9037,15.39868 15.40316,26.15222 -5.32646,5.45478 -15.42368,7.18452 -22.55489,3.86385 z"
       id="path3716"
       inkscape:connector-curvature="0" />
    <path
       style="fill:#cccccc"
       d="m 530.86806,298.02868 c -3.22573,-0.81869 -7.67715,-4.15952 -10.22061,-7.67067 -3.0032,-4.14579 -3.338,-8.69311 -1.01381,-13.76981 2.94808,-6.43944 8.48954,-9.63442 16.78578,-9.67797 7.59982,-0.0399 14.17917,3.84668 16.98829,10.03538 2.45958,5.41864 1.21411,11.21347 -3.40226,15.82985 -4.39543,4.39543 -13.10125,6.78518 -19.13739,5.25322 z"
       id="path3718"
       inkscape:connector-curvature="0" />
    <path
       style="fill:#ffffff"
       d="m 396.05872,298.95096 c -6.09449,-1.51271 -10.62603,-4.67955 -12.84993,-8.98009 -1.14855,-2.22106 -2.4343,-9.66356 -1.66945,-9.66356 0.24569,0 0.84469,-1.10061 1.33112,-2.44581 1.12422,-3.10898 6.26554,-7.6636 9.8697,-8.74343 3.54462,-1.06199 10.14596,-1.06727 13.67171,-0.0109 3.29929,0.98849 7.99683,4.86255 9.55887,7.88321 1.2637,2.44373 2.42993,10.38803 1.52496,10.38803 -0.31753,0 -0.57733,0.41548 -0.57733,0.92329 0,1.41679 -3.14724,5.36315 -5.7753,7.24171 -1.29603,0.92641 -2.67462,1.93431 -3.06353,2.23977 -0.38891,0.30546 -1.3435,0.5927 -2.12132,0.63831 -0.77782,0.0456 -3.0052,0.26239 -4.94975,0.48172 -1.94454,0.21934 -4.17193,0.24084 -4.94975,0.0478 z"
       id="path3726"
       inkscape:connector-curvature="0" />
    <path
       style="fill:#ffffff"
       d="m 527.18502,296.02113 c -3.78336,-2.43702 -7.62879,-6.84515 -8.15635,-9.34985 -0.20479,-0.97228 -0.67132,-2.3203 -1.03673,-2.99561 -0.87188,-1.61128 -0.84879,-2.85867 0.0427,-2.3077 0.38891,0.24036 0.7071,-0.23396 0.7071,-1.05404 0,-2.06536 1.87128,-5.52304 4.69256,-8.67071 1.30818,-1.45953 2.37851,-2.50991 2.37851,-2.33418 0,0.17573 1.19191,-0.1785 2.64869,-0.78718 1.53835,-0.64277 4.79639,-1.12054 7.77194,-1.13971 10.06885,-0.0649 17.10905,5.70021 17.85781,14.62348 0.20493,2.44216 0.1234,4.72965 -0.18117,5.0833 -0.30457,0.35365 -1.4978,1.98848 -2.65163,3.63294 -3.08535,4.39732 -8.07004,6.72247 -15.19259,7.08669 -5.29893,0.27098 -5.86085,0.15788 -8.88085,-1.78743 z"
       id="path3728"
       inkscape:connector-curvature="0" />
    <path
       style="fill:#cccccc"
       d="m 584.50268,258.387 c 0,-0.3889 -0.94815,-0.7071 -2.10701,-0.7071 -3.82368,0 -7.65626,-2.10133 -10.61875,-5.82206 -3.60286,-4.52501 -4.70315,-8.30224 -3.61816,-12.42098 1.11733,-4.24148 2.57578,-6.215 7.01825,-9.49685 3.49134,-2.5792 4.2548,-2.84725 8.17921,-2.8717 11.77727,-0.0734 19.68944,5.9046 19.81202,14.96881 0.0409,3.02474 -0.35122,4.63066 -1.63962,6.71491 -2.04825,3.31347 -8.92774,7.92292 -12.80152,8.57739 -1.54561,0.26113 -2.8102,0.76501 -2.8102,1.11974 0,0.35472 -0.3182,0.64495 -0.70711,0.64495 -0.38891,0 -0.70711,-0.3182 -0.70711,-0.70711 z"
       id="path3732"
       inkscape:connector-curvature="0" />
    <path
       style="fill:#cccccc"
       d="m 576.37096,339.79809 c -4.1413,-1.88783 -7.11101,-4.65633 -8.85155,-8.25179 -7.54928,-15.59473 13.85782,-28.99453 28.77535,-18.01197 5.72124,4.21209 7.66008,12.7285 4.26755,18.74533 -1.77242,3.14347 -6.99914,7.00182 -10.9845,8.10874 -4.02526,1.118 -10.05011,0.8487 -13.20685,-0.59031 z"
       id="path3734"
       inkscape:connector-curvature="0" />
    <path
       style="fill:#cccccc"
       d="m 345.52077,256.22902 c -5.03987,-2.77775 -6.99859,-4.6339 -8.56649,-8.11786 -1.11974,-2.48814 -1.18736,-3.49647 -0.53104,-7.9185 0.73706,-4.96595 0.83302,-5.13767 4.79899,-8.58716 3.39579,-2.95357 4.74674,-3.64679 8.3967,-4.30865 6.3617,-1.1536 12.10773,0.60054 16.97842,5.18314 3.06302,2.88186 4.17497,5.08728 4.74982,9.42073 0.5785,4.36091 -0.43772,6.56062 -4.95407,10.72364 -6.66307,6.14181 -13.97718,7.40495 -20.87233,3.60466 z"
       id="path3736"
       inkscape:connector-curvature="0" />
    <path
       style="fill:#ffffff"
       d="m 347.26836,339.54359 c -7.10778,-2.53359 -12.01539,-8.84138 -11.97051,-15.38577 0.0804,-11.72606 13.27111,-19.47884 25.8495,-15.19295 15.29409,5.21122 15.29409,25.15491 0,30.36613 -3.60406,1.22803 -10.7243,1.33709 -13.87899,0.21259 z"
       id="path3738"
       inkscape:connector-curvature="0" />
    <path
       style="fill:#ffffff"
       d="m 349.92747,257.69835 c -1.25985,-0.29914 -4.07387,-1.61891 -6.25338,-2.93282 -6.48939,-3.91211 -8.4559,-8.77332 -6.68735,-16.53107 0.79694,-3.49574 6.58185,-9.13922 10.47722,-10.22107 6.26567,-1.74013 12.54875,-0.39711 18.15807,3.88132 5.27079,4.02024 6.97755,12.37795 3.54056,17.33753 -2.31866,3.34583 -7.36648,6.94939 -11.46058,8.18153 -3.53683,1.06444 -4.36281,1.09467 -7.77454,0.28458 z"
       id="path3740"
       inkscape:connector-curvature="0" />
    <path
       style="fill:#ffffff"
       d="m 583.44202,258.01572 c -0.3889,-0.14281 -2.07748,-0.6121 -3.75238,-1.04289 -8.16772,-2.10072 -13.6324,-12.51102 -10.49785,-19.99852 1.07481,-2.5674 5.58613,-6.90141 9.04624,-8.6907 2.95386,-1.5275 11.15175,-1.02791 15.57536,0.94918 7.76389,3.46999 11.25512,11.72774 7.83554,18.53323 -1.64357,3.27093 -7.31948,7.44484 -12.51058,9.19992 -4.31718,1.45961 -4.49228,1.49188 -5.69633,1.04978 z"
       id="path3744"
       inkscape:connector-curvature="0" />
    <path
       style="fill:#ffffff"
       d="m 577.43162,340.32815 c 0,-0.24876 -0.9466,-0.84439 -2.10356,-1.32362 -2.99773,-1.24169 -7.5562,-6.45362 -8.44542,-9.65604 -1.11716,-4.02331 -0.93805,-6.51735 0.71297,-9.92791 6.77848,-14.00246 30.60286,-11.94987 33.93134,2.92336 1.47182,6.57679 -1.17094,11.96146 -7.72963,15.74927 -1.80632,1.0432 -3.44333,2.0711 -3.63778,2.28423 -0.49953,0.5475 -12.72792,0.50014 -12.72792,-0.0493 z"
       id="path3746"
       inkscape:connector-curvature="0" />
    <path
       style="fill:#cccccc"
       d="m 393.2303,297.87044 c -8.78436,-3.32232 -13.80305,-12.72587 -10.37649,-19.44248 1.62427,-3.18384 6.32142,-7.70827 9.17602,-8.83859 3.15733,-1.2502 12.88604,-0.98897 15.86804,0.42608 4.19127,1.98889 8.02825,6.68024 8.93973,10.93035 0.43333,2.02057 0.78788,4.18699 0.78788,4.81427 0,2.0771 -3.40939,7.00144 -6.73317,9.72503 -3.14769,2.5793 -3.51346,2.69343 -9.40786,2.93564 -3.51089,0.14426 -7.03975,-0.091 -8.25415,-0.5503 z"
       id="path3748"
       inkscape:connector-curvature="0" />
    <path
       style="fill:#cccccc"
       d="m 529.73448,296.89233 c -3.97553,-1.36672 -9.161,-6.80175 -10.84124,-11.36297 -0.77148,-2.09431 -1.19586,-3.80783 -0.94306,-3.80783 0.25279,0 1.00232,-1.52798 1.66561,-3.39551 0.66328,-1.86753 2.40851,-4.69413 3.87828,-6.28134 2.20198,-2.37794 3.41626,-3.03955 6.89935,-3.75916 13.52554,-2.7944 23.70367,4.17381 23.70367,16.22814 0,3.45048 -4.96804,9.17336 -9.6885,11.16056 -4.4351,1.86708 -11.16208,2.42549 -14.67411,1.21811 z"
       id="path3750"
       inkscape:connector-curvature="0" />
    <path
       style="fill:#cccccc"
       d="m 465.08667,239.95985 c -7.70151,-1.54755 -13.03475,-7.89305 -13.03912,-15.51397 -0.003,-4.43605 1.18854,-7.13595 4.58525,-10.39361 5.55589,-5.32843 15.15747,-6.96465 21.99882,-3.74883 3.55508,1.67108 7.92086,6.00754 9.05721,8.99636 0.97206,2.55671 0.98072,7.29664 0.0187,10.21171 -0.98578,2.98695 -5.92464,7.94732 -9.27082,9.3112 -3.34748,1.3644 -9.57791,1.89511 -13.35,1.13714 z"
       id="path3752"
       inkscape:connector-curvature="0" />
    <ellipse
       style="fill:#b3b3b3;fill-rule:evenodd;stroke:#000000;stroke-width:0.37982345px;stroke-linecap:butt;stroke-linejoin:miter;stroke-opacity:1"
       id="path3344-0-6"
       cx="411.32483"
       cy="224.49716"
       rx="19.44738"
       ry="16.98634" />
    <ellipse
       style="fill:#b3b3b3;fill-rule:evenodd;stroke:#000000;stroke-width:0.37982345px;stroke-linecap:butt;stroke-linejoin:miter;stroke-opacity:1"
       id="path3344-0-9"
       cx="531.32849"
       cy="225.10733"
       rx="19.44738"
       ry="16.98634" />
    <ellipse
       style="fill:#b3b3b3;fill-rule:evenodd;stroke:#000000;stroke-width:0.37982345px;stroke-linecap:butt;stroke-linejoin:miter;stroke-opacity:1"
       id="path3344-0-6-4"
       cx="411.01974"
       cy="337.73483"
       rx="19.447393"
       ry="16.986349" />
    <ellipse
       style="fill:#b3b3b3;fill-rule:evenodd;stroke:#000000;stroke-width:0.37982345px;stroke-linecap:butt;stroke-linejoin:miter;stroke-opacity:1"
       id="path3344-0-9-8"
       cx="531.0235"
       cy="338.345"
       rx="19.447393"
       ry="16.986349" />
    <path
       style="fill:none;fill-rule:evenodd;stroke:#000000;stroke-width:1px;stroke-linecap:butt;stroke-linejoin:miter;stroke-opacity:1"
       d="m 469.7231,321.91264 -0.29318,-22.34706"
       id="path3469"
       inkscape:connector-type="polyline"
       inkscape:connector-curvature="0"
       inkscape:connection-end="#path3344-0" />
    <path
       style="fill:none;fill-rule:evenodd;stroke:#000000;stroke-width:1px;stroke-linecap:butt;stroke-linejoin:miter;stroke-opacity:1"
       d="m 450.75991,224.55294 -19.98789,-0.0283"
       id="path3471"
       inkscape:connector-type="polyline"
       inkscape:connector-curvature="0"
       inkscape:connection-start="#path3344-0-4"
       inkscape:connection-end="#path3344-0-6" />
    <path
       style="fill:none;fill-rule:evenodd;stroke:#000000;stroke-width:1px;stroke-linecap:butt;stroke-linejoin:miter;stroke-opacity:1"
       d="m 489.65329,224.74808 22.229,0.19162"
       id="path3473"
       inkscape:connector-type="polyline"
       inkscape:connector-curvature="0"
       inkscape:connection-start="#path3344-0-4"
       inkscape:connection-end="#path3344-0-9" />
    <path
       style="fill:none;fill-rule:evenodd;stroke:#000000;stroke-width:1px;stroke-linecap:butt;stroke-linejoin:miter;stroke-opacity:1"
       d="m 511.5775,338.1464 -23.46197,-0.23963"
       id="path3477"
       inkscape:connector-type="polyline"
       inkscape:connector-curvature="0"
       inkscape:connection-start="#path3344-0-9-8" />
    <path
       style="fill:none;fill-rule:evenodd;stroke:#000000;stroke-width:1px;stroke-linecap:butt;stroke-linejoin:miter;stroke-opacity:1"
       d="m 451.74259,337.7253 -21.27548,0.005"
       id="path3479"
       inkscape:connector-type="polyline"
       inkscape:connector-curvature="0"
       inkscape:connection-end="#path3344-0-6-4" />
    <path
       style="fill:#ffffff"
       d="m 188.18844,226.50275 c -6.06273,-3.17317 -8.65424,-6.84839 -9.03396,-12.81176 -0.32831,-5.156 1.04557,-8.55853 4.93073,-12.21136 3.514,-3.30388 6.76652,-4.67383 11.98255,-5.04704 20.45506,-1.46355 28.27428,22.10989 10.1765,30.68018 -5.52754,2.61759 -12.32806,2.38783 -18.05582,-0.61002 z"
       id="path3487"
       inkscape:connector-curvature="0"
       transform="translate(333.35709,125.75259)" />
    <path
       style="fill:#ffffff"
       d="m 196.69831,171.03721 c -4.2032,-1.49137 -9.5347,-7.26149 -11.17873,-12.09839 -1.60215,-4.71369 4.45105,-14.25672 10.00589,-15.77457 4.30083,-1.17519 11.64587,-0.9596 15.14976,0.44466 6.72713,2.69606 11.50665,11.8011 9.14508,17.42148 -1.52469,3.62867 -6.84868,8.10579 -11.16237,9.38682 -3.60912,1.07179 -9.78412,1.39191 -11.95963,0.62 z"
       id="path3489"
       inkscape:connector-curvature="0"
       transform="translate(333.35709,125.75259)" />
    <path
       style="fill:#ffffff"
       d="m 127.00898,171.26096 c -6.70634,-3.12283 -10.94601,-10.27931 -9.8684,-16.65766 1.61885,-9.58189 13.68072,-16.38966 24.06073,-13.57997 16.38028,4.43386 18.14604,23.60812 2.81755,30.59568 -4.28083,1.95143 -12.41806,1.78015 -17.00988,-0.35805 z"
       id="path3491"
       inkscape:connector-curvature="0"
       transform="translate(333.35709,125.75259)" />
    <path
       style="fill:#ffffff"
       d="m 56.398203,170.00418 c -4.191452,-2.7763 -6.841682,-6.69429 -7.304266,-10.79832 -0.524454,-4.65294 0.202764,-6.51524 4.190784,-10.73198 3.97932,-4.20755 6.432784,-5.22506 12.598843,-5.22506 9.853263,0 15.592588,4.43146 17.645359,13.62438 0.881182,3.94619 0.132773,5.9003 -4.020416,10.49738 -3.815974,4.22383 -5.536787,4.86173 -13.115046,4.86173 -6.255766,0 -6.821943,-0.12621 -9.995258,-2.22813 z"
       id="path3493"
       inkscape:connector-curvature="0"
       transform="translate(333.35709,125.75259)" />
    <path
       style="fill:#ffffff"
       d="M 70.453454,113.87306 C 56.196324,108.6029 55.20607,91.411687 68.769222,84.6341 c 10.054903,-5.024494 22.18091,-1.370466 26.543581,7.998592 2.602829,5.589707 1.933266,10.790618 -2.004139,15.567368 -3.640723,4.41683 -7.730765,6.2849 -14.278495,6.5215 -3.793804,0.13708 -6.683965,-0.14884 -8.576715,-0.8485 z"
       id="path3495"
       inkscape:connector-curvature="0"
       transform="translate(333.35709,125.75259)" />
    <path
       style="fill:#ffffff"
       d="m 131.64449,114.01618 c 0,-0.35127 -0.63639,-0.47225 -1.41421,-0.26885 -0.77782,0.20341 -1.41421,0.0626 -1.41421,-0.31281 0,-0.37545 -0.3182,-0.48598 -0.70711,-0.24562 -0.38891,0.24036 -0.70711,0.047 -0.70711,-0.42968 0,-0.47668 -0.18031,-0.68637 -0.40069,-0.46599 -0.22038,0.22038 -1.52994,-0.72856 -2.91013,-2.10875 -8.5889,-8.5889 -6.12419,-20.644605 5.18687,-25.370666 2.95208,-1.233461 12.14344,-2.387944 12.42947,-1.561207 0.10459,0.302327 0.98567,0.638612 1.95794,0.747299 0.97227,0.108687 1.92686,0.380192 2.12132,0.603345 0.19445,0.223153 2.15696,2.025988 4.36113,4.0063 2.20417,1.980312 3.82167,3.78647 3.59446,4.013684 -0.22722,0.227216 -0.0972,0.413118 0.28887,0.413118 0.40716,0 0.68747,2.301526 0.66741,5.480078 -0.0304,4.823029 -0.24882,5.725359 -1.82157,7.525819 -2.96519,3.39452 -5.95738,6.06636 -7.26708,6.48904 -0.68059,0.21964 -1.23744,0.71489 -1.23744,1.10054 0,0.38565 -0.24673,0.5487 -0.54829,0.36233 -0.30155,-0.18638 -3.16534,-0.11396 -6.36396,0.16092 -3.35919,0.28868 -5.81567,0.23001 -5.81567,-0.1389 z"
       id="path3497"
       inkscape:connector-curvature="0"
       transform="translate(333.35709,125.75259)" />
    <path
       style="fill:#ffffff"
       d="m 190.37223,114.48433 c -6.01765,-2.2055 -11.36125,-9.34718 -11.34764,-15.166054 0.0127,-5.424914 4.00819,-11.410773 9.49376,-14.223087 3.89961,-1.999231 11.90212,-2.509553 16.22976,-1.034975 14.41479,4.911611 16.26166,21.986176 3.15003,29.122416 -4.66678,2.53998 -12.54977,3.12547 -17.52591,1.3017 z"
       id="path3499"
       inkscape:connector-curvature="0"
       transform="translate(333.35709,125.75259)" />
    <ellipse
       style="fill:#b3b3b3;fill-rule:evenodd;stroke:#000000;stroke-width:0.37982345px;stroke-linecap:butt;stroke-linejoin:miter;stroke-opacity:1"
       id="path3344-0-6-4-8"
       cx="467.99036"
       cy="339.55109"
       rx="19.447407"
       ry="16.986359" />
    <path
       style="fill:#ffffff"
       d="m 127.02727,228.816 c -1.98584,-0.7884 -4.91333,-2.79444 -6.62864,-4.54222 -7.29328,-7.4313 -5.58479,-18.29944 3.78762,-24.09402 2.92588,-1.80896 4.31784,-2.17713 9.04334,-2.39195 6.69176,-0.30421 10.68456,0.97512 14.89749,4.77328 11.30959,10.19614 3.77868,26.59168 -12.5935,27.41731 -3.73552,0.18837 -5.82221,-0.0968 -8.50631,-1.1624 z"
       id="path3531"
       inkscape:connector-curvature="0"
       transform="translate(333.35709,125.75259)" />
    <path
       style="fill:#ffffff"
       d="m 69.065544,226.40566 c -11.528751,-5.45949 -13.675845,-18.30674 -4.38814,-26.25667 9.345992,-7.99982 25.028826,-5.00843 30.473178,5.81255 2.695699,5.35787 0.648715,13.73764 -4.365396,17.87069 -5.4878,4.52351 -15.177342,5.67157 -21.719642,2.57343 z"
       id="path3533"
       inkscape:connector-curvature="0"
       transform="translate(333.35709,125.75259)" />
    <path
       style="fill:#cccccc"
       d="M 58.916502,89.901595 C 57.612543,89.50015 55.033945,87.659972 53.186285,85.812312 49.266886,81.892913 47.501641,76.73096 48.803557,72.996281 c 1.116369,-3.202419 4.756107,-7.357005 8.08936,-9.233615 3.478096,-1.958157 11.061844,-2.336471 15.549314,-0.775675 5.450159,1.895631 9.300614,6.853472 10.153114,13.073135 0.582246,4.247944 -2.497003,9.540552 -7.300181,12.547539 -2.669444,1.671182 -12.604004,2.456022 -16.378662,1.29393 z"
       id="path3684"
       inkscape:connector-curvature="0"
       transform="translate(334.06424,207.32091)" />
    <path
       style="fill:#cccccc"
       d="m 128.57221,31.686009 c -3.33578,-1.23372 -5.74886,-3.421997 -7.86956,-7.136452 -2.13618,-3.741563 -2.66582,-6.978178 -1.72241,-10.525574 1.67513,-6.2987365 6.86917,-10.377631 15.00483,-11.7833417 6.84688,-1.1830283 9.84257,-0.2044453 15.28924,4.9944435 l 4.29046,4.0952652 0,5.564611 c 0,5.170429 -0.15411,5.751572 -2.17556,8.203941 -4.13023,5.01068 -7.40002,6.669983 -14.10353,7.157038 -4.35533,0.316444 -6.73828,0.160581 -8.71347,-0.569931 z"
       id="path3686"
       inkscape:connector-curvature="0"
       transform="translate(334.06424,207.32091)" />
    <path
       style="fill:#cccccc"
       d="m 126.23887,146.9168 c -3.3459,-1.45585 -8.08769,-6.04429 -9.53864,-9.23016 -2.3145,-5.08195 -1.41113,-10.36025 2.56894,-15.01007 3.6846,-4.30462 7.56289,-5.91527 14.35064,-5.95978 6.7663,-0.0444 10.50832,1.40304 14.56218,5.63269 7.91964,8.26306 3.63047,21.64973 -7.96907,24.87176 -3.62455,1.0068 -11.34718,0.83856 -13.97405,-0.30444 z"
       id="path3689"
       inkscape:connector-curvature="0"
       transform="translate(334.06424,207.32091)" />
    <path
       style="fill:#cccccc"
       d="m 196.47553,89.264724 c -4.52912,-1.420477 -10.62023,-8.091111 -11.52668,-12.623345 -1.03403,-5.170159 5.25979,-13.581509 11.23498,-15.014934 4.14456,-0.994265 11.60251,-0.472448 14.47457,1.012755 7.35431,3.80306 10.89317,13.419372 6.92017,18.804478 -2.30462,3.123737 -7.61843,6.850151 -10.46918,7.341721 -5.26755,0.908311 -8.76361,1.065897 -10.63386,0.479325 z"
       id="path3691"
       inkscape:connector-curvature="0"
       transform="translate(334.06424,207.32091)" />
  </g>
</svg>
